PathFileType	4	(X/Y/Z)	RBDS026\RBDS026runT35.trc
DataRate	CameraRate	NumFrames	NumMarkers	Units	OrigDataRate	OrigDataStartFrame	OrigNumFrames
150.000000	150.000000	5	33	mm	150.000000	0	4500
Frame#	Time	L.ASIS			L.Heel.Bottom			L.Heel.Lateral			L.Heel.Top			L.Iliac.Crest			L.MT1			L.MT5			L.PSIS			L.Shank.Bottom.Lateral			L.Shank.Bottom.Medial			L.Shank.Top.Lateral			L.Shank.Top.Medial			L.Thigh.Bottom.Lateral			L.Thigh.Bottom.Medial			L.Thigh.Top.Lateral			L.Thigh.Top.Medial			R.ASIS			R.ASY			R.Heel.Bottom			R.Heel.Lateral			R.Heel.Top			R.Iliac.Crest			R.MT1			R.MT5			R.PSIS			R.Shank.Bottom.Lateral			R.Shank.Bottom.Medial			R.Shank.Top.Lateral			R.Shank.Top.Medial			R.Thigh.Bottom.Lateral			R.Thigh.Bottom.Medial			R.Thigh.Top.Lateral			R.Thigh.Top.Medial			
		X1	Y1	Z1	X2	Y2	Z2	X3	Y3	Z3	X4	Y4	Z4	X5	Y5	Z5	X6	Y6	Z6	X7	Y7	Z7	X8	Y8	Z8	X9	Y9	Z9	X10	Y10	Z10	X11	Y11	Z11	X12	Y12	Z12	X13	Y13	Z13	X14	Y14	Z14	X15	Y15	Z15	X16	Y16	Z16	X17	Y17	Z17	X18	Y18	Z18	X19	Y19	Z19	X20	Y20	Z20	X21	Y21	Z21	X22	Y22	Z22	X23	Y23	Z23	X24	Y24	Z24	X25	Y25	Z25	X26	Y26	Z26	X27	Y27	Z27	X28	Y28	Z28	X29	Y29	Z29	X30	Y30	Z30	X31	Y31	Z31	X32	Y32	Z32	X33	Y33	Z33	

1	0	2111.99865035241	989.4247045686102	900.8712250367749	1995.457781728144	31.1832835988525	1014.892505763447	2023.170315014559	50.4878623017384	963.5794471356268	2007.12097849816	77.83591554290145	1013.985572340483	2015.452952463297	1052.81540699073	866.6220056255136	2225.091206827277	46.90653557741939	1016.925705022009	2168.996462566727	40.22048425802226	915.6734551784696	1946.02661441959	1024.018045257955	998.4588245502697	2100.537671956465	155.2901716021012	931.7123708155436	2057.391591359014	173.5998668009358	952.1109571671735	2120.204642080173	226.7750328294527	899.5388862773037	2076.098517308877	249.1611612500211	918.9025767569789	2144.045477870985	602.6588423341483	852.817628971861	2092.192904217293	580.9048014390206	898.5301617271289	2091.526331339988	697.4930271359393	835.6996716426951	2042.327121271002	677.38700013218	880.0900601148301	2129.609815976534	954.9577732836425	1139.825845520875	1594.623200864525	362.2130722990505	1093.886357534746	1609.398534348125	542.861775717001	1032.827394236498	1610.960317198004	519.9692055316959	1087.038268097497	1647.711545768921	520.1831534670707	1043.268052602178	2084.424553830453	1020.359215311982	1187.64000268455	1546.286732622	326.6150480410736	1048.092205286139	1536.742736831921	384.4627650011258	1142.828278118932	1958.165093991241	1015.128569572071	1094.367878359433	1704.057698759874	462.8835805070503	1131.513605866163	1709.357406029553	502.2405849448029	1093.974558016686	1781.440189095232	476.0259092037497	1153.892477624571	1786.089491872647	512.7378578205631	1115.394544952948	2062.903825351359	537.3439073216065	1206.989289738091	1999.602341883433	536.4604688797277	1173.161173109512	2056.642507592175	647.4576413520608	1216.111941699566	1993.829375721479	645.4886609172099	1188.880658682305	
2	0.006666666666666667	2110.36430600585	986.9626537047599	900.6048517882318	1972.29648628659	31.04884777383701	1015.041494489479	1999.959399658946	50.52491136421593	963.6757792287514	1984.036627357951	77.76068190968792	1014.237608636119	2013.268707334241	1050.622588463188	866.5380084321712	2201.918334007268	46.70290625427123	1016.634555401436	2145.769616333987	40.03227463328533	915.5736026332623	1944.359070464352	1022.592120210286	998.2215775999576	2080.649101031192	153.9708131603204	931.8975324482788	2037.992915567299	173.693396025363	951.749739738461	2102.837502595022	224.5965305545358	899.6738121746508	2059.274335296079	248.3502060092141	918.4389794324634	2136.883766412568	598.2871246668752	852.6694438118151	2084.062260153678	577.3772948009565	897.7421079119653	2086.019077746571	694.2189069872746	835.696002439804	2036.409112752538	674.9108065216869	880.0385096206822	2127.049527263031	954.8294945238117	1140.692815096304	1611.652641070932	357.7093880529677	1096.502112479391	1620.23044097766	539.6388144944012	1037.821446744206	1623.878395444415	516.258472884402	1091.731842783601	1659.55141104156	517.8432140781122	1047.1885754347	2077.986016487287	1021.628830083714	1188.004376218891	1563.02650713574	321.5427645094341	1051.203275304676	1554.119157093763	377.941842274729	1147.172488200847	1955.959624853102	1013.74167841963	1094.142900662958	1719.289957573529	459.788385335569	1133.79166266387	1723.79514715317	499.7765519052126	1096.64470839366	1796.790522125566	473.4658970326333	1155.516261586791	1800.636367103706	510.7814852971838	1117.416579067946	2075.37795043673	537.0338623302706	1205.837687489601	2012.042258839473	533.9198654835542	1172.262878336269	2065.092580686387	646.6526277867388	1215.430521763375	2002.239647826877	642.4022723097748	1188.542773787133	
3	0.01333333333333333	2108.811752290927	984.6279241255962	900.3673354314741	1949.095761532735	30.99730624969411	1015.179401487073	1976.710560330666	50.62727247050393	963.7627936748397	1960.921337961666	77.75700698339115	1014.472577662133	2011.253122699158	1048.59751118185	866.4170226071416	2178.688722594576	46.50805351538064	1016.371210636063	2122.484385127481	39.85414170908298	915.4914096069817	1942.758117594504	1021.363225766904	997.9318820168526	2060.610062941452	152.7620260885837	932.076484991633	2018.454767460523	173.8573431808712	951.4324311816907	2085.242954272616	222.5466283193506	899.8112466536552	2042.237553341877	247.632091808764	918.0329195230497	2129.455344309456	594.0938572810502	852.5350225348726	2075.679777270632	574.0729824405391	896.9861349161191	2080.335705504153	691.1309870753742	835.7101186829059	2030.312125854374	672.6651730457737	880.0080096011749	2124.553648797579	954.918425318958	1141.545209509332	1628.847541923433	352.9374001770402	1099.071458909695	1631.009740962014	535.9747350350561	1042.714888677425	1636.744169110119	512.1610740567194	1096.312695499	1671.317171637058	515.1405248216311	1051.022016047262	2071.769585543478	1022.92770681581	1188.323061607575	1580.049286213472	316.1134762713828	1054.26385929774	1571.689246342164	371.0830050874706	1151.423066216647	1953.811887583679	1012.556829274035	1093.861754252477	1734.494802263404	456.4822751325167	1136.010322523277	1738.145749149575	497.1094323274083	1099.285047338971	1812.064325544145	470.8185956413483	1157.10846746723	1815.050554515687	508.741850613034	1119.434399870184	2087.750848996966	537.0773955193195	1204.666917350964	2024.408900664001	531.7433636016322	1171.339283511466	2073.465806475629	646.1617899719702	1214.732785413792	2010.601104198469	639.6431886067728	1188.188590602198	
4	0.02	2107.405858886675	982.5398259767952	900.1722686800528	1925.795769711749	31.09566766144057	1015.30637450809	1953.368629853429	50.85240040829871	963.8411608922539	1937.719553010165	77.88959105465129	1014.682743487263	2009.553917540546	1046.889111423255	866.2229178375993	2155.34253631458	46.32853216379255	1016.158178544919	2099.076475728874	39.69763809772937	915.444978548159	1941.283337772917	1020.512567948976	997.5440989944948	2040.268669832871	151.7662382737852	932.2510111154048	1998.633752180124	174.1616234809978	951.2012843270915	2067.204309544233	220.7415430739879	899.9591614818082	2024.781729585909	247.0937234907753	917.7333629431198	2121.510515718333	590.2388632867903	852.4357319496397	2066.811578404932	571.1975059385885	896.3030630493423	2074.312987208131	688.3968923915087	835.7640778305655	2023.87048539312	670.8623746271734	880.0240499039515	2122.182513615762	955.4042944761233	1142.367391082458	1646.346108037976	347.644231314493	1101.545650148006	1641.659732048549	531.4727323521514	1047.427990739489	1649.49066158962	507.3279455075752	1100.688990062295	1682.919527065375	511.7493873569705	1054.699510284945	2065.977649238743	1024.283249719416	1188.558388442824	1597.588057632678	309.991470931391	1057.217463938892	1589.616615848654	363.5693149198324	1155.488202891118	1951.773410238684	1011.759336108273	1093.476528253801	1749.635940793896	452.7803542606342	1138.119670312343	1752.311701820349	494.0598279797237	1101.871758836752	1827.189214616265	468.0139023721647	1158.641171795642	1829.200216499824	506.552325888761	1121.447364479901	2099.94678684967	537.8082098893019	1203.457977955289	2036.648818913175	530.2716493603033	1170.371563352813	2081.703241333932	646.2800843297539	1214.008546347651	2018.880395705079	637.5150097769433	1187.810457017156	
5	0.02666666666666667	2106.196009433081	980.8043437280317	900.0241612337491	1902.365308079841	31.41483626520136	1015.420323586889	1929.909344149592	51.26012814133045	963.9090985232074	1914.404941878749	78.22782201046279	1014.857315629689	2008.290566225826	1045.622691983626	865.9284426196308	2131.848533344913	46.16968588406439	1016.013986690672	2075.511173212446	39.57525231674001	915.4491305253018	1939.98669285979	1020.189481888223	997.0276862849648	2019.525678990215	151.0768863803561	932.421390462963	1978.434136574425	174.6729250316665	951.0847057182862	2048.571056381163	219.2866581696493	900.1236343095402	2006.760825177946	246.8165898190249	917.5737541338316	2112.856231262477	586.8625547337116	852.3992079240743	2057.284888564152	568.9317782506728	895.7445786533508	2067.826904096321	686.1598994190166	835.8834220528678	2016.96464895772	669.68360464213	880.1206198029062	2119.994444706192	956.4131469765862	1143.140495748802	1664.247372213857	341.6327405031197	1103.877888066082	1652.115481012036	525.811606206204	1051.892742070716	1662.059285961761	501.4787259301349	1104.785463293743	1694.281903785725	507.4061527345717	1058.162287910068	2060.781970289896	1025.732372196465	1188.683800765424	1615.81770432552	302.9178672380684	1060.010840155643	1608.021660355943	355.1560390196622	1159.286191950207	1949.891718162027	1011.503140691188	1092.95514864261	1764.671948788223	448.5400783202332	1140.079159077909	1766.2015628912	490.4813754192453	1104.379246129779	1842.094570577237	464.9985988724167	1160.087282734171	1842.965436836115	504.1563868260853	1123.446813076999	2111.890677484198	539.494583116332	1202.199953684511	2048.703552994058	529.7810741462888	1169.352188121638	2089.752121479843	647.2466427996711	1213.253316593145	2027.042576017302	636.2666699510129	1187.408489154862	
